<svg width="34" height="34" viewBox="0 0 34 34" fill="none" xmlns="http://www.w3.org/2000/svg">
<path fill-rule="evenodd" clip-rule="evenodd" d="M17 34C26.3888 34 34 26.3888 34 17C34 7.61116 26.3888 0 17 0C7.61116 0 0 7.61116 0 17C0 26.3888 7.61116 34 17 34Z" fill="black" fill-opacity="0.75"/>
<path fill-rule="evenodd" clip-rule="evenodd" d="M19.66 10.1449L12 17.8395L19.4814 25.3552C19.5773 25.4516 19.7033 25.5 19.8292 25.5C19.9552 25.5 20.0807 25.4516 20.1771 25.3552C20.369 25.1619 20.369 24.8495 20.1771 24.6563L13.3915 17.8395L20.3557 10.8439C20.5481 10.6506 20.5481 10.3382 20.3557 10.1449C20.1633 9.95168 19.8524 9.95168 19.66 10.1449Z" fill="white"/>
</svg>
