<svg width="16" height="16" viewBox="0 0 16 16" fill="none" xmlns="http://www.w3.org/2000/svg">
<path d="M8 0C12.4256 0 16 3.57452 16 8C16 12.4256 12.4256 16 8 16C3.57442 16 0 12.4256 0 8C0 3.57452 3.57442 0 8 0ZM7.99039 1.84615C7.66817 1.85118 7.37957 2.14894 7.38462 2.47115V8C7.38465 8.32221 7.67779 8.61535 8 8.61539H13.5288C13.854 8.61999 14.153 8.32515 14.153 8C14.153 7.67485 13.854 7.38002 13.5288 7.38462H8.61539V2.47115C8.62053 2.14253 8.31901 1.84101 7.99039 1.84615Z" fill="#F8F8F8"/>
</svg>
