<svg width="34" height="34" viewBox="0 0 34 34" fill="none" xmlns="http://www.w3.org/2000/svg">
<path fill-rule="evenodd" clip-rule="evenodd" d="M17 34C26.3888 34 34 26.3888 34 17C34 7.61116 26.3888 0 17 0C7.61116 0 0 7.61116 0 17C0 26.3888 7.61116 34 17 34Z" fill="black"/>
<path fill-rule="evenodd" clip-rule="evenodd" d="M7.75 18.6591C8.7165 18.6591 9.5 17.84 9.5 16.8295C9.5 15.8191 8.7165 15 7.75 15C6.7835 15 6 15.8191 6 16.8295C6 17.84 6.7835 18.6591 7.75 18.6591Z" fill="white"/>
<path fill-rule="evenodd" clip-rule="evenodd" d="M16.75 18.6591C17.7165 18.6591 18.5 17.84 18.5 16.8295C18.5 15.8191 17.7165 15 16.75 15C15.7835 15 15 15.8191 15 16.8295C15 17.84 15.7835 18.6591 16.75 18.6591Z" fill="white"/>
<path fill-rule="evenodd" clip-rule="evenodd" d="M25.75 18.6591C26.7165 18.6591 27.5 17.84 27.5 16.8295C27.5 15.8191 26.7165 15 25.75 15C24.7835 15 24 15.8191 24 16.8295C24 17.84 24.7835 18.6591 25.75 18.6591Z" fill="white"/>
</svg>
