<svg width="21" height="16" viewBox="0 0 21 16" fill="none" xmlns="http://www.w3.org/2000/svg">
<path d="M4.55 0C4.03 0 3.51 0.133333 3.12 0.533333C2.73 0.933334 2.6 1.46667 2.6 2V5.33333H5.2V2.66667H15.6V5.33333H13L16.9 9.33333L20.8 5.33333H18.2V2C18.2 1.46667 18.07 0.933334 17.68 0.533333C17.29 0.133333 16.77 0 16.25 0H4.55ZM3.9 6.66667L0 10.6667H2.6V14C2.6 14.5333 2.73 15.0667 3.12 15.4667C3.51 15.8667 4.03 16 4.55 16H16.25C16.77 16 17.29 15.8667 17.68 15.4667C18.07 15.0667 18.2 14.5333 18.2 14V10.6667H15.6V13.3333H5.2V10.6667H7.8L3.9 6.66667Z" fill="#F8F8F8"/>
</svg>
